<?xml version="1.0" encoding="UTF-8" standalone="no"?><!-- Generator: Gravit.io --><svg xmlns="http://www.w3.org/2000/svg" xmlns:xlink="http://www.w3.org/1999/xlink" style="isolation:isolate" viewBox="0 0 26.752 26.752" width="26.752pt" height="26.752pt"><defs><clipPath id="_clipPath_5X4MFDyYQ4glliMRSq3rFJqnHxT0a4F3"><rect width="26.752" height="26.752"/></clipPath></defs><g clip-path="url(#_clipPath_5X4MFDyYQ4glliMRSq3rFJqnHxT0a4F3)"><path d=" M 15.497 13.376 L 26.312 2.562 C 26.898 1.977 26.898 1.027 26.312 0.441 C 25.726 -0.145 24.777 -0.145 24.191 0.441 L 13.376 11.255 L 2.562 0.439 C 1.976 -0.147 1.027 -0.147 0.441 0.439 C -0.145 1.024 -0.145 1.974 0.441 2.56 L 11.255 13.375 L 0.439 24.19 C -0.147 24.776 -0.147 25.725 0.439 26.311 C 0.732 26.604 1.116 26.75 1.5 26.75 C 1.884 26.75 2.268 26.604 2.561 26.311 L 13.376 15.497 L 24.19 26.312 C 24.483 26.605 24.867 26.751 25.251 26.751 C 25.635 26.751 26.019 26.605 26.312 26.312 C 26.898 25.726 26.898 24.777 26.312 24.191 L 15.497 13.376 L 15.497 13.376 Z " fill="rgb(242,91,38)"/></g></svg>