<?xml version="1.0" encoding="UTF-8" standalone="no"?><!-- Generator: Gravit.io --><svg xmlns="http://www.w3.org/2000/svg" xmlns:xlink="http://www.w3.org/1999/xlink" style="isolation:isolate" viewBox="0 0 298 345.097" width="298pt" height="345.097pt"><defs><clipPath id="_clipPath_dQi8qhot02h7JZ5c8ATCUDYReH6WHltR"><rect width="298" height="345.097"/></clipPath></defs><g clip-path="url(#_clipPath_dQi8qhot02h7JZ5c8ATCUDYReH6WHltR)"><path d=" M 264.568 102.055 L 269.923 96.7 C 277.64 88.983 279.047 77.762 273.049 71.765 C 267.052 65.768 255.832 67.175 248.115 74.892 L 242.729 80.277 C 221.768 63.292 196.11 51.875 168 48.297 L 168 38.714 L 175.658 38.714 C 186.572 38.714 195.501 30.003 195.501 19.357 C 195.501 8.711 186.573 0 175.659 0 L 122.342 0 C 111.429 0 102.5 8.711 102.5 19.357 C 102.5 30.003 111.429 38.714 122.342 38.714 L 130 38.714 L 130 48.297 C 56.681 57.629 0 120.244 0 196.097 C 0 278.388 66.709 345.097 149 345.097 C 231.29 345.097 298 278.388 298 196.097 C 298 160.434 285.465 127.703 264.568 102.055 Z  M 149 306.264 C 88.156 306.264 38.833 256.941 38.833 196.097 C 38.833 135.253 88.156 85.93 149 85.93 C 209.843 85.93 259.167 135.253 259.167 196.097 C 259.167 256.941 209.843 306.264 149 306.264 Z " fill="rgb(222,222,222)"/></g></svg>